<svg xmlns="http://www.w3.org/2000/svg" version="1.1" xmlns:xlink="http://www.w3.org/1999/xlink" xmlns:svgjs="http://svgjs.dev/svgjs" viewBox="0 0 9.852947877763645 3.6711698081709736"><g transform="matrix(1,0,0,1,3.6301383906856644,0.8879929040854869)"><rect width="9.852947877763645" height="3.6711698081709736" x="-3.6301383906856644" y="-0.8879929040854868" fill="#ffffff"></rect><g><path d=" M 0.6276689999999999 0.008855999999999864 L 0.6276689999999999 0.16051499999999985 L 0.42176699999999995 0.16051499999999985 L 0.42176699999999995 0.7859699999999998 L 0.23246999999999998 0.7859699999999998 L 0.23246999999999998 0.16051499999999985 L 0.026567999999999998 0.16051499999999985 L 0.026567999999999998 0.008855999999999864 L 0.6276689999999999 0.008855999999999864 Z M 1.0061992177734376 0.1909574999999999 Q 1.0560142177734375 0.16162199999999993 1.1168992177734376 0.16162199999999993 L 1.1168992177734376 0.3619889999999999 L 1.0648702177734375 0.3619889999999999 Q 0.9940222177734375 0.3619889999999999 0.9585982177734376 0.3924314999999999 Q 0.9231742177734374 0.42287399999999986 0.9231742177734374 0.49925699999999984 L 0.9231742177734374 0.7859699999999998 L 0.7338772177734375 0.7859699999999998 L 0.7338772177734375 0.16826399999999986 L 0.9231742177734374 0.16826399999999986 L 0.9231742177734374 0.2712149999999999 Q 0.9563842177734375 0.22029299999999985 1.0061992177734376 0.1909574999999999 Z M 1.8286764345703124 0.16826399999999986 L 1.8286764345703124 0.7859699999999998 L 1.6393794345703123 0.7859699999999998 L 1.6393794345703123 0.7018379999999999 Q 1.6105974345703125 0.7427969999999998 1.5613359345703124 0.7677044999999998 Q 1.5120744345703123 0.7926119999999999 1.4522964345703124 0.7926119999999999 Q 1.3814484345703124 0.7926119999999999 1.3272054345703124 0.7610624999999999 Q 1.2729624345703123 0.7295129999999999 1.2430734345703125 0.6697349999999999 Q 1.2131844345703124 0.6099569999999999 1.2131844345703124 0.5291459999999999 L 1.2131844345703124 0.16826399999999986 L 1.4013744345703123 0.16826399999999986 L 1.4013744345703123 0.5036849999999999 Q 1.4013744345703123 0.5656769999999999 1.4334774345703125 0.5999939999999999 Q 1.4655804345703123 0.6343109999999998 1.5198234345703123 0.6343109999999998 Q 1.5751734345703123 0.6343109999999998 1.6072764345703123 0.5999939999999999 Q 1.6393794345703123 0.5656769999999999 1.6393794345703123 0.5036849999999999 L 1.6393794345703123 0.16826399999999986 L 1.8286764345703124 0.16826399999999986 Z M 2.08323130078125 0.7671509999999998 Q 2.02013230078125 0.7394759999999998 1.98360130078125 0.6913214999999998 Q 1.94707030078125 0.6431669999999998 1.9426423007812499 0.5833889999999998 L 2.1297253007812498 0.5833889999999998 Q 2.13304630078125 0.6154919999999998 2.15961430078125 0.6354179999999998 Q 2.18618230078125 0.6553439999999998 2.22492730078125 0.6553439999999998 Q 2.26035130078125 0.6553439999999998 2.27972380078125 0.6415064999999999 Q 2.29909630078125 0.6276689999999998 2.29909630078125 0.6055289999999999 Q 2.29909630078125 0.5789609999999998 2.27142130078125 0.5662304999999999 Q 2.24374630078125 0.5534999999999999 2.18175430078125 0.5380019999999999 Q 2.11533430078125 0.5225039999999999 2.07105430078125 0.5053454999999998 Q 2.02677430078125 0.48818699999999987 1.99467130078125 0.45110249999999985 Q 1.96256830078125 0.4140179999999999 1.96256830078125 0.35091899999999987 Q 1.96256830078125 0.29778299999999985 1.99190380078125 0.2540564999999999 Q 2.02123930078125 0.2103299999999999 2.0782498007812498 0.18486899999999984 Q 2.13526030078125 0.15940799999999988 2.21385730078125 0.15940799999999988 Q 2.33009230078125 0.15940799999999988 2.3970658007812498 0.21697199999999983 Q 2.46403930078125 0.2745359999999999 2.47400230078125 0.36973799999999984 L 2.29909630078125 0.36973799999999984 Q 2.29466830078125 0.33763499999999985 2.27086780078125 0.3188159999999999 Q 2.24706730078125 0.29999699999999985 2.20832230078125 0.29999699999999985 Q 2.17511230078125 0.29999699999999985 2.15740030078125 0.3127274999999999 Q 2.13968830078125 0.32545799999999986 2.13968830078125 0.34759799999999985 Q 2.13968830078125 0.3741659999999999 2.16791680078125 0.38744999999999985 Q 2.19614530078125 0.40073399999999987 2.25592330078125 0.4140179999999999 Q 2.32455730078125 0.43172999999999984 2.36773030078125 0.44888849999999986 Q 2.41090330078125 0.4660469999999999 2.44355980078125 0.5042384999999998 Q 2.47621630078125 0.5424299999999999 2.47732330078125 0.6066359999999998 Q 2.47732330078125 0.6608789999999999 2.44688080078125 0.7034984999999998 Q 2.41643830078125 0.7461179999999998 2.35942780078125 0.7704719999999998 Q 2.30241730078125 0.7948259999999998 2.22714130078125 0.7948259999999998 Q 2.14633030078125 0.7948259999999998 2.08323130078125 0.7671509999999998 Z M 2.948886922851562 0.6254549999999999 L 2.948886922851562 0.7859699999999998 L 2.8525779228515624 0.7859699999999998 Q 2.7496269228515624 0.7859699999999998 2.6920629228515622 0.7356014999999998 Q 2.6344989228515625 0.6852329999999999 2.6344989228515625 0.5712119999999998 L 2.6344989228515625 0.32545799999999986 L 2.5592229228515624 0.32545799999999986 L 2.5592229228515624 0.16826399999999986 L 2.6344989228515625 0.16826399999999986 L 2.6344989228515625 0.01771199999999995 L 2.8237959228515623 0.01771199999999995 L 2.8237959228515623 0.16826399999999986 L 2.9477799228515624 0.16826399999999986 L 2.9477799228515624 0.32545799999999986 L 2.8237959228515623 0.32545799999999986 L 2.8237959228515623 0.5734259999999999 Q 2.8237959228515623 0.6011009999999999 2.8370799228515624 0.6132779999999999 Q 2.8503639228515625 0.6254549999999999 2.8813599228515625 0.6254549999999999 L 2.948886922851562 0.6254549999999999 Z M 3.0827728432617185 0.1909574999999999 Q 3.1325878432617187 0.10073699999999985 3.2217013432617185 0.05036849999999993 Q 3.310814843261719 -1.1102230246251565e-16 3.423728843261719 -1.1102230246251565e-16 Q 3.5621038432617187 -1.1102230246251565e-16 3.660626843261719 0.07306199999999985 Q 3.7591498432617185 0.14612399999999992 3.7923598432617185 0.27232199999999984 L 3.5842438432617185 0.27232199999999984 Q 3.5609968432617185 0.22361399999999987 3.5183773432617187 0.1981529999999999 Q 3.475757843261719 0.17269199999999985 3.421514843261719 0.17269199999999985 Q 3.334061843261719 0.17269199999999985 3.279818843261719 0.23357699999999992 Q 3.2255758432617188 0.2944619999999999 3.2255758432617188 0.3963059999999999 Q 3.2255758432617188 0.49814999999999987 3.279818843261719 0.5590349999999998 Q 3.334061843261719 0.6199199999999998 3.421514843261719 0.6199199999999998 Q 3.475757843261719 0.6199199999999998 3.5183773432617187 0.5944589999999998 Q 3.5609968432617185 0.5689979999999999 3.5842438432617185 0.5202899999999999 L 3.7923598432617185 0.5202899999999999 Q 3.7591498432617185 0.6464879999999998 3.660626843261719 0.7189964999999998 Q 3.5621038432617187 0.7915049999999998 3.423728843261719 0.7915049999999998 Q 3.310814843261719 0.7915049999999998 3.2217013432617185 0.7411364999999999 Q 3.1325878432617187 0.6907679999999998 3.0827728432617185 0.6011009999999999 Q 3.032957843261719 0.5114339999999998 3.032957843261719 0.3963059999999999 Q 3.032957843261719 0.28117799999999993 3.0827728432617185 0.1909574999999999 Z M 4.037519263183594 0.7560809999999998 Q 3.965010763183594 0.7173359999999999 3.923498263183594 0.6453809999999999 Q 3.881985763183594 0.5734259999999999 3.881985763183594 0.47711699999999985 Q 3.881985763183594 0.3819149999999999 3.924051763183594 0.30940649999999986 Q 3.9661177631835938 0.23689799999999983 4.0391797631835935 0.1981529999999999 Q 4.112241763183594 0.15940799999999988 4.203015763183593 0.15940799999999988 Q 4.293789763183594 0.15940799999999988 4.366851763183594 0.1981529999999999 Q 4.439913763183593 0.23689799999999983 4.481979763183594 0.30940649999999986 Q 4.524045763183594 0.3819149999999999 4.524045763183594 0.47711699999999985 Q 4.524045763183594 0.5723189999999998 4.481426263183594 0.6448274999999999 Q 4.438806763183594 0.7173359999999999 4.365191263183593 0.7560809999999998 Q 4.291575763183594 0.7948259999999998 4.200801763183594 0.7948259999999998 Q 4.110027763183594 0.7948259999999998 4.037519263183594 0.7560809999999998 Z M 4.293236263183594 0.5911379999999998 Q 4.331427763183594 0.5512859999999998 4.331427763183594 0.47711699999999985 Q 4.331427763183594 0.40294799999999986 4.294343263183594 0.36309599999999986 Q 4.257258763183594 0.32324399999999986 4.203015763183593 0.32324399999999986 Q 4.147665763183594 0.32324399999999986 4.1111347631835935 0.3625424999999999 Q 4.074603763183594 0.4018409999999999 4.074603763183594 0.47711699999999985 Q 4.074603763183594 0.5512859999999998 4.110581263183594 0.5911379999999998 Q 4.146558763183593 0.6309899999999998 4.200801763183594 0.6309899999999998 Q 4.2550447631835935 0.6309899999999998 4.293236263183594 0.5911379999999998 Z M 4.908133683105469 0.1909574999999999 Q 4.957948683105469 0.16162199999999993 5.018833683105469 0.16162199999999993 L 5.018833683105469 0.3619889999999999 L 4.966804683105469 0.3619889999999999 Q 4.895956683105469 0.3619889999999999 4.860532683105469 0.3924314999999999 Q 4.825108683105469 0.42287399999999986 4.825108683105469 0.49925699999999984 L 4.825108683105469 0.7859699999999998 L 4.635811683105469 0.7859699999999998 L 4.635811683105469 0.16826399999999986 L 4.825108683105469 0.16826399999999986 L 4.825108683105469 0.2712149999999999 Q 4.858318683105469 0.22029299999999985 4.908133683105469 0.1909574999999999 Z M 5.699614899902344 0.5225039999999999 L 5.271205899902344 0.5225039999999999 Q 5.275633899902344 0.5800679999999998 5.3082903999023445 0.6105104999999998 Q 5.340946899902344 0.6409529999999999 5.388547899902345 0.6409529999999999 Q 5.459395899902344 0.6409529999999999 5.487070899902344 0.5811749999999999 L 5.688544899902344 0.5811749999999999 Q 5.673046899902344 0.6420599999999999 5.632641399902344 0.6907679999999998 Q 5.592235899902344 0.7394759999999998 5.531350899902344 0.7671509999999998 Q 5.4704658999023446 0.7948259999999998 5.395189899902344 0.7948259999999998 Q 5.304415899902344 0.7948259999999998 5.2335678999023445 0.7560809999999998 Q 5.162719899902344 0.7173359999999999 5.122867899902344 0.6453809999999999 Q 5.083015899902344 0.5734259999999999 5.083015899902344 0.47711699999999985 Q 5.083015899902344 0.38080799999999987 5.122314399902344 0.3088529999999999 Q 5.1616128999023445 0.23689799999999983 5.232460899902344 0.1981529999999999 Q 5.303308899902344 0.15940799999999988 5.395189899902344 0.15940799999999988 Q 5.484856899902344 0.15940799999999988 5.554597899902344 0.19704599999999983 Q 5.6243388999023445 0.2346839999999999 5.663637399902344 0.3044249999999999 Q 5.702935899902344 0.3741659999999999 5.702935899902344 0.46715399999999985 Q 5.702935899902344 0.4937219999999999 5.699614899902344 0.5225039999999999 Z M 5.509210899902344 0.41733899999999985 Q 5.509210899902344 0.3686309999999999 5.476000899902344 0.33984899999999985 Q 5.442790899902344 0.31106699999999987 5.3929758999023445 0.31106699999999987 Q 5.345374899902344 0.31106699999999987 5.312718399902344 0.3387419999999999 Q 5.2800618999023445 0.3664169999999999 5.272312899902344 0.41733899999999985 L 5.509210899902344 0.41733899999999985 Z M 0.19704599999999997 1.8752579999999996 Q 0.129519 1.8475829999999998 0.0891135 1.7933399999999997 Q 0.048707999999999994 1.7390969999999997 0.046493999999999994 1.6627139999999998 L 0.24796799999999997 1.6627139999999998 Q 0.25239599999999995 1.7058869999999997 0.27785699999999997 1.7285804999999999 Q 0.303318 1.7512739999999998 0.344277 1.7512739999999998 Q 0.386343 1.7512739999999998 0.410697 1.7319014999999998 Q 0.43505099999999997 1.7125289999999997 0.43505099999999997 1.6782119999999998 Q 0.43505099999999997 1.6494299999999997 0.41567849999999995 1.6306109999999998 Q 0.396306 1.611792 0.36807749999999995 1.5996149999999998 Q 0.33984899999999996 1.5874379999999997 0.28781999999999996 1.5719399999999997 Q 0.21254399999999998 1.5486929999999997 0.16494299999999998 1.5254459999999999 Q 0.11734199999999999 1.5021989999999998 0.08302499999999999 1.4568119999999998 Q 0.048707999999999994 1.411425 0.048707999999999994 1.3383629999999997 Q 0.048707999999999994 1.2298769999999997 0.127305 1.1684384999999997 Q 0.20590199999999997 1.1069999999999998 0.33209999999999995 1.1069999999999998 Q 0.460512 1.1069999999999998 0.539109 1.1684384999999997 Q 0.617706 1.2298769999999997 0.6232409999999999 1.33947 L 0.418446 1.33947 Q 0.416232 1.3018319999999997 0.390771 1.2802455 Q 0.36530999999999997 1.2586589999999998 0.32545799999999997 1.2586589999999998 Q 0.291141 1.2586589999999998 0.27010799999999996 1.2769244999999998 Q 0.249075 1.2951899999999998 0.249075 1.3295069999999998 Q 0.249075 1.3671449999999998 0.284499 1.388178 Q 0.31992299999999996 1.4092109999999998 0.39519899999999997 1.4335649999999998 Q 0.470475 1.4590259999999997 0.5175225 1.4822729999999997 Q 0.5645699999999999 1.5055199999999997 0.598887 1.5497999999999998 Q 0.633204 1.5940799999999997 0.633204 1.6638209999999998 Q 0.633204 1.7302409999999997 0.5994404999999999 1.7844839999999997 Q 0.565677 1.8387269999999998 0.501471 1.8708299999999998 Q 0.43726499999999996 1.9029329999999998 0.34981199999999996 1.9029329999999998 Q 0.264573 1.9029329999999998 0.19704599999999997 1.8752579999999996 Z M 1.391488189453125 1.277478 L 1.004038189453125 2.1885389999999996 L 0.800350189453125 2.1885389999999996 L 0.9420461894531249 1.8741509999999997 L 0.690757189453125 1.277478 L 0.902194189453125 1.277478 L 1.044997189453125 1.6638209999999998 L 1.186693189453125 1.277478 L 1.391488189453125 1.277478 Z M 1.5785247041015624 1.8763649999999998 Q 1.5154257041015624 1.8486899999999997 1.4788947041015625 1.8005354999999998 Q 1.4423637041015624 1.7523809999999997 1.4379357041015624 1.6926029999999999 L 1.6250187041015625 1.6926029999999999 Q 1.6283397041015624 1.7247059999999999 1.6549077041015625 1.7446319999999997 Q 1.6814757041015624 1.7645579999999998 1.7202207041015625 1.7645579999999998 Q 1.7556447041015624 1.7645579999999998 1.7750172041015624 1.7507204999999997 Q 1.7943897041015624 1.7368829999999997 1.7943897041015624 1.7147429999999997 Q 1.7943897041015624 1.6881749999999998 1.7667147041015623 1.6754444999999998 Q 1.7390397041015624 1.6627139999999998 1.6770477041015623 1.6472159999999998 Q 1.6106277041015624 1.6317179999999998 1.5663477041015623 1.6145594999999997 Q 1.5220677041015624 1.5974009999999998 1.4899647041015625 1.5603164999999999 Q 1.4578617041015625 1.5232319999999997 1.4578617041015625 1.460133 Q 1.4578617041015625 1.4069969999999998 1.4871972041015624 1.3632704999999998 Q 1.5165327041015624 1.3195439999999998 1.5735432041015625 1.2940829999999997 Q 1.6305537041015625 1.2686219999999997 1.7091507041015626 1.2686219999999997 Q 1.8253857041015624 1.2686219999999997 1.8923592041015624 1.3261859999999999 Q 1.9593327041015625 1.3837499999999998 1.9692957041015624 1.4789519999999998 L 1.7943897041015624 1.4789519999999998 Q 1.7899617041015623 1.4468489999999998 1.7661612041015624 1.4280299999999997 Q 1.7423607041015625 1.4092109999999998 1.7036157041015625 1.4092109999999998 Q 1.6704057041015625 1.4092109999999998 1.6526937041015624 1.4219414999999997 Q 1.6349817041015624 1.4346719999999997 1.6349817041015624 1.4568119999999998 Q 1.6349817041015624 1.48338 1.6632102041015624 1.4966639999999998 Q 1.6914387041015624 1.5099479999999998 1.7512167041015625 1.5232319999999997 Q 1.8198507041015624 1.5409439999999996 1.8630237041015625 1.5581024999999997 Q 1.9061967041015624 1.5752609999999998 1.9388532041015623 1.6134524999999997 Q 1.9715097041015626 1.6516439999999997 1.9726167041015623 1.7158499999999997 Q 1.9726167041015623 1.7700929999999997 1.9421742041015624 1.8127124999999997 Q 1.9117317041015625 1.8553319999999998 1.8547212041015624 1.8796859999999997 Q 1.7977107041015623 1.9040399999999997 1.7224347041015624 1.9040399999999997 Q 1.6416237041015624 1.9040399999999997 1.5785247041015624 1.8763649999999998 Z M 2.4441803261718746 1.7346689999999998 L 2.4441803261718746 1.8951839999999998 L 2.347871326171875 1.8951839999999998 Q 2.244920326171875 1.8951839999999998 2.1873563261718747 1.8448154999999997 Q 2.129792326171875 1.7944469999999997 2.129792326171875 1.6804259999999998 L 2.129792326171875 1.4346719999999997 L 2.054516326171875 1.4346719999999997 L 2.054516326171875 1.277478 L 2.129792326171875 1.277478 L 2.129792326171875 1.1269259999999999 L 2.319089326171875 1.1269259999999999 L 2.319089326171875 1.277478 L 2.443073326171875 1.277478 L 2.443073326171875 1.4346719999999997 L 2.319089326171875 1.4346719999999997 L 2.319089326171875 1.6826399999999997 Q 2.319089326171875 1.7103149999999998 2.332373326171875 1.7224919999999997 Q 2.345657326171875 1.7346689999999998 2.376653326171875 1.7346689999999998 L 2.4441803261718746 1.7346689999999998 Z M 3.139315246582031 1.6317179999999998 L 2.7109062465820313 1.6317179999999998 Q 2.715334246582031 1.6892819999999997 2.747990746582031 1.7197244999999999 Q 2.7806472465820313 1.7501669999999998 2.828248246582031 1.7501669999999998 Q 2.8990962465820314 1.7501669999999998 2.9267712465820312 1.6903889999999997 L 3.128245246582031 1.6903889999999997 Q 3.112747246582031 1.7512739999999998 3.072341746582031 1.7999819999999997 Q 3.031936246582031 1.8486899999999997 2.9710512465820313 1.8763649999999998 Q 2.910166246582031 1.9040399999999997 2.834890246582031 1.9040399999999997 Q 2.7441162465820312 1.9040399999999997 2.673268246582031 1.8652949999999997 Q 2.602420246582031 1.8265499999999997 2.562568246582031 1.7545949999999997 Q 2.522716246582031 1.6826399999999997 2.522716246582031 1.5863309999999997 Q 2.522716246582031 1.4900219999999997 2.5620147465820313 1.4180669999999997 Q 2.601313246582031 1.3461119999999998 2.6721612465820312 1.3073669999999997 Q 2.743009246582031 1.2686219999999997 2.834890246582031 1.2686219999999997 Q 2.9245572465820313 1.2686219999999997 2.994298246582031 1.3062599999999998 Q 3.064039246582031 1.3438979999999998 3.103337746582031 1.4136389999999999 Q 3.1426362465820312 1.48338 3.1426362465820312 1.5763679999999998 Q 3.1426362465820312 1.6029359999999997 3.139315246582031 1.6317179999999998 Z M 2.948911246582031 1.5265529999999998 Q 2.948911246582031 1.4778449999999999 2.915701246582031 1.4490629999999998 Q 2.882491246582031 1.4202809999999997 2.832676246582031 1.4202809999999997 Q 2.785075246582031 1.4202809999999997 2.7524187465820313 1.4479559999999998 Q 2.719762246582031 1.475631 2.712013246582031 1.5265529999999998 L 2.948911246582031 1.5265529999999998 Z M 4.224691990722656 1.3405769999999997 Q 4.2927724907226565 1.4103179999999997 4.2927724907226565 1.5343019999999998 L 4.2927724907226565 1.8951839999999998 L 4.104582490722656 1.8951839999999998 L 4.104582490722656 1.5597629999999998 Q 4.104582490722656 1.4999849999999997 4.073032990722656 1.4673284999999998 Q 4.041483490722656 1.4346719999999997 3.986133490722656 1.4346719999999997 Q 3.930783490722656 1.4346719999999997 3.899233990722656 1.4673284999999998 Q 3.867684490722656 1.4999849999999997 3.867684490722656 1.5597629999999998 L 3.867684490722656 1.8951839999999998 L 3.6794944907226563 1.8951839999999998 L 3.6794944907226563 1.5597629999999998 Q 3.6794944907226563 1.4999849999999997 3.647944990722656 1.4673284999999998 Q 3.616395490722656 1.4346719999999997 3.5610454907226563 1.4346719999999997 Q 3.505695490722656 1.4346719999999997 3.474145990722656 1.4673284999999998 Q 3.4425964907226563 1.4999849999999997 3.4425964907226563 1.5597629999999998 L 3.4425964907226563 1.8951839999999998 L 3.253299490722656 1.8951839999999998 L 3.253299490722656 1.277478 L 3.4425964907226563 1.277478 L 3.4425964907226563 1.354968 Q 3.471378490722656 1.316223 3.517872490722656 1.2935294999999998 Q 3.564366490722656 1.2708359999999999 3.6230374907226564 1.2708359999999999 Q 3.692778490722656 1.2708359999999999 3.747574990722656 1.300725 Q 3.8023714907226562 1.3306139999999997 3.8333674907226563 1.3859639999999998 Q 3.865470490722656 1.3350419999999998 3.9208204907226563 1.3029389999999998 Q 3.976170490722656 1.2708359999999999 4.041483490722656 1.2708359999999999 Q 4.156611490722656 1.2708359999999999 4.224691990722656 1.3405769999999997 Z M 4.544017167480469 1.8763649999999998 Q 4.480918167480469 1.8486899999999997 4.4443871674804685 1.8005354999999998 Q 4.407856167480468 1.7523809999999997 4.4034281674804685 1.6926029999999999 L 4.590511167480469 1.6926029999999999 Q 4.5938321674804685 1.7247059999999999 4.620400167480469 1.7446319999999997 Q 4.646968167480469 1.7645579999999998 4.685713167480468 1.7645579999999998 Q 4.721137167480468 1.7645579999999998 4.7405096674804685 1.7507204999999997 Q 4.759882167480469 1.7368829999999997 4.759882167480469 1.7147429999999997 Q 4.759882167480469 1.6881749999999998 4.732207167480468 1.6754444999999998 Q 4.704532167480469 1.6627139999999998 4.642540167480469 1.6472159999999998 Q 4.576120167480469 1.6317179999999998 4.5318401674804685 1.6145594999999997 Q 4.487560167480469 1.5974009999999998 4.455457167480469 1.5603164999999999 Q 4.423354167480468 1.5232319999999997 4.423354167480468 1.460133 Q 4.423354167480468 1.4069969999999998 4.452689667480469 1.3632704999999998 Q 4.482025167480469 1.3195439999999998 4.539035667480468 1.2940829999999997 Q 4.596046167480469 1.2686219999999997 4.674643167480468 1.2686219999999997 Q 4.790878167480469 1.2686219999999997 4.857851667480468 1.3261859999999999 Q 4.924825167480469 1.3837499999999998 4.934788167480469 1.4789519999999998 L 4.759882167480469 1.4789519999999998 Q 4.755454167480469 1.4468489999999998 4.731653667480469 1.4280299999999997 Q 4.707853167480469 1.4092109999999998 4.669108167480468 1.4092109999999998 Q 4.635898167480469 1.4092109999999998 4.618186167480468 1.4219414999999997 Q 4.600474167480469 1.4346719999999997 4.600474167480469 1.4568119999999998 Q 4.600474167480469 1.48338 4.628702667480469 1.4966639999999998 Q 4.656931167480469 1.5099479999999998 4.716709167480468 1.5232319999999997 Q 4.785343167480469 1.5409439999999996 4.828516167480468 1.5581024999999997 Q 4.8716891674804685 1.5752609999999998 4.904345667480468 1.6134524999999997 Q 4.937002167480468 1.6516439999999997 4.9381091674804685 1.7158499999999997 Q 4.9381091674804685 1.7700929999999997 4.907666667480468 1.8127124999999997 Q 4.877224167480469 1.8553319999999998 4.820213667480469 1.8796859999999997 Q 4.7632031674804685 1.9040399999999997 4.687927167480469 1.9040399999999997 Q 4.607116167480468 1.9040399999999997 4.544017167480469 1.8763649999999998 Z" fill="#1c3423" fill-rule="nonzero"></path></g><g></g><g clip-path="url(&quot;#SvgjsClipPath1003&quot;)"><g clip-path="url(&quot;#SvgjsClipPath1000&quot;)"><path d=" M -2.4563219561222267 0.9237239772950095 C -2.8347115835510444 0.923805063685338 -3.1414367215397716 1.230530201674065 -3.141517807930096 1.6089198291028808 C -3.141517817697652 1.9873668135722102 -2.834768935797999 2.2941814526042488 -2.4563219580712223 2.294262561050056 C -2.2745712659865798 2.294262565226304 -2.1002667571066316 2.2220523331882704 -1.9717633855017727 2.0935214153086856 C -1.8432600138969177 1.9649904974291017 -1.771087143823435 1.7906705150626987 -1.7711261043143576 1.6089198291028808 L -2.4563219561222267 1.6089198291028808 Z" fill="#1c3423" transform="matrix(1,0,0,1,0,0)" fill-rule="nonzero"></path></g><g clip-path="url(&quot;#SvgjsClipPath1000&quot;)"><path d=" M -1.0856364922270405 0.9237239772950095 C -0.7071083702658623 0.9236428351634421 -0.400162206058039 1.2303917331988963 -0.3999999999999999 1.6089198291028808 C -0.4001621901830923 1.9874716820763028 -0.707084604507898 2.294262595795421 -1.0856364922267407 2.294262561050474 C -1.4640834699540473 2.294181453680903 -1.7708323527262293 1.9873668155212036 -1.7708323440349099 1.6089198291028808 L -1.0856364922270405 1.6089198291028808 Z" fill="#67a97b" transform="matrix(1,0,0,1,0,0)" fill-rule="nonzero"></path></g><g clip-path="url(&quot;#SvgjsClipPath1000&quot;)"><path d=" M -1.0856364922270405 0.9713131425652667 C -0.707165695999417 0.9713943158471999 -0.4002432765778927 0.6647348976419761 -0.3999999999999999 0.2862641708971183 C -0.4000389508618514 0.10446102087773257 -0.4722973286932053 -0.06988047180600665 -0.6008791142821264 -0.19840716665567767 C -0.729460899871047 -0.3269338615053477 -0.9038333422090385 -0.39911752025923647 -1.085636492226838 -0.3990785610504766 C -1.4640834699540473 -0.3989974536809053 -1.7708323527262293 -0.09218281552120577 -1.7708323440349099 0.2862641708971174 L -1.0856364922270405 0.2862641708971174 Z" fill="#a4c868" transform="matrix(1,0,0,1,0,0)" fill-rule="nonzero"></path></g><g clip-path="url(&quot;#SvgjsClipPath1000&quot;)"><path d=" M -2.4563219561222267 0.9713131425652667 C -2.8346878228809214 0.9713131512584453 -3.1414367005631627 0.6646300289626302 -3.141517807930096 0.2862641708971183 C -3.141517815905272 -0.09218281681809337 -2.8347689325524987 -0.39899745439732526 -2.45632195482534 -0.3990785610507542 C -2.2745593159926125 -0.3991175491712929 -2.1002321527637404 -0.3269198340604357 -1.9717203291863048 -0.19838046239648519 C -1.8432085056088654 -0.0698410907325347 -1.7710481573179881 0.10450154329939809 -1.7711261043143536 0.2862641708971174 L -2.4563219561222267 0.2862641708971174 Z" fill="#faecd3" transform="matrix(1,0,0,1,0,0)" fill-rule="nonzero"></path></g></g></g><defs><clipPath id="SvgjsClipPath1003"><path d=" M -3.141224047650652 -0.3990785610504747 h 2.741224047650652 v 2.693341122100949 h -2.741224047650652 Z"></path></clipPath><clipPath id="SvgjsClipPath1000"><path d=" M -3.141224047650652 -0.3990785610504747 L -0.3999999999999999 -0.3990785610504747 L -0.3999999999999999 2.2942625610504743 L -3.141224047650652 2.2942625610504743 Z"></path></clipPath></defs></svg>