<svg xmlns="http://www.w3.org/2000/svg" version="1.1" xmlns:xlink="http://www.w3.org/1999/xlink" xmlns:svgjs="http://svgjs.dev/svgjs" viewBox="0 0 18.74729393001164 3.5692769578598487"><g transform="matrix(1,0,0,1,0.6341748811319601,0.6846043494551612)"><g><path d=" M 0.8505 0.014999999999999902 L 0.8505 0.2204999999999998 L 0.5715 0.2204999999999998 L 0.5715 1.0679999999999998 L 0.315 1.0679999999999998 L 0.315 0.2204999999999998 L 0.036000000000000004 0.2204999999999998 L 0.036000000000000004 0.014999999999999902 L 0.8505 0.014999999999999902 Z M 1.36341357421875 0.2617499999999998 Q 1.43091357421875 0.22199999999999986 1.51341357421875 0.22199999999999986 L 1.51341357421875 0.4934999999999998 L 1.44291357421875 0.4934999999999998 Q 1.3469135742187501 0.4934999999999998 1.29891357421875 0.5347499999999998 Q 1.25091357421875 0.5759999999999998 1.25091357421875 0.6794999999999998 L 1.25091357421875 1.0679999999999998 L 0.99441357421875 1.0679999999999998 L 0.99441357421875 0.23099999999999987 L 1.25091357421875 0.23099999999999987 L 1.25091357421875 0.37049999999999983 Q 1.29591357421875 0.30149999999999977 1.36341357421875 0.2617499999999998 Z M 2.47788134765625 0.23099999999999987 L 2.47788134765625 1.0679999999999998 L 2.22138134765625 1.0679999999999998 L 2.22138134765625 0.9539999999999998 Q 2.18238134765625 1.0094999999999998 2.11563134765625 1.0432499999999998 Q 2.04888134765625 1.0769999999999997 1.96788134765625 1.0769999999999997 Q 1.8718813476562501 1.0769999999999997 1.79838134765625 1.03425 Q 1.7248813476562501 0.9914999999999998 1.6843813476562501 0.9104999999999999 Q 1.64388134765625 0.8294999999999998 1.64388134765625 0.7199999999999998 L 1.64388134765625 0.23099999999999987 L 1.89888134765625 0.23099999999999987 L 1.89888134765625 0.6854999999999998 Q 1.89888134765625 0.7694999999999999 1.9423813476562501 0.8159999999999998 Q 1.98588134765625 0.8624999999999998 2.05938134765625 0.8624999999999998 Q 2.13438134765625 0.8624999999999998 2.17788134765625 0.8159999999999998 Q 2.22138134765625 0.7694999999999999 2.22138134765625 0.6854999999999998 L 2.22138134765625 0.23099999999999987 L 2.47788134765625 0.23099999999999987 Z M 2.822806640625 1.0424999999999998 Q 2.737306640625 1.005 2.687806640625 0.9397499999999999 Q 2.6383066406249998 0.8744999999999998 2.632306640625 0.7934999999999999 L 2.885806640625 0.7934999999999999 Q 2.890306640625 0.8369999999999999 2.926306640625 0.8639999999999999 Q 2.962306640625 0.8909999999999998 3.014806640625 0.8909999999999998 Q 3.062806640625 0.8909999999999998 3.089056640625 0.8722499999999999 Q 3.115306640625 0.8534999999999998 3.115306640625 0.8234999999999999 Q 3.115306640625 0.7874999999999999 3.077806640625 0.7702499999999999 Q 3.040306640625 0.7529999999999999 2.956306640625 0.7319999999999998 Q 2.866306640625 0.7109999999999999 2.806306640625 0.6877499999999999 Q 2.746306640625 0.6644999999999999 2.702806640625 0.6142499999999999 Q 2.659306640625 0.5639999999999998 2.659306640625 0.4784999999999998 Q 2.659306640625 0.40649999999999986 2.699056640625 0.34724999999999984 Q 2.738806640625 0.2879999999999998 2.816056640625 0.25349999999999984 Q 2.893306640625 0.21899999999999986 2.999806640625 0.21899999999999986 Q 3.157306640625 0.21899999999999986 3.248056640625 0.2969999999999998 Q 3.338806640625 0.3749999999999998 3.3523066406249997 0.5039999999999998 L 3.115306640625 0.5039999999999998 Q 3.109306640625 0.4604999999999998 3.077056640625 0.43499999999999983 Q 3.044806640625 0.40949999999999986 2.992306640625 0.40949999999999986 Q 2.947306640625 0.40949999999999986 2.923306640625 0.42674999999999985 Q 2.899306640625 0.44399999999999984 2.899306640625 0.47399999999999987 Q 2.899306640625 0.5099999999999998 2.937556640625 0.5279999999999998 Q 2.975806640625 0.5459999999999998 3.056806640625 0.5639999999999998 Q 3.149806640625 0.5879999999999999 3.208306640625 0.6112499999999998 Q 3.266806640625 0.6344999999999998 3.311056640625 0.6862499999999998 Q 3.355306640625 0.7379999999999998 3.356806640625 0.8249999999999998 Q 3.356806640625 0.8984999999999999 3.315556640625 0.9562499999999998 Q 3.274306640625 1.0139999999999998 3.197056640625 1.047 Q 3.119806640625 1.0799999999999998 3.017806640625 1.0799999999999998 Q 2.9083066406249998 1.0799999999999998 2.822806640625 1.0424999999999998 Z M 3.99578173828125 0.8504999999999998 L 3.99578173828125 1.0679999999999998 L 3.86528173828125 1.0679999999999998 Q 3.72578173828125 1.0679999999999998 3.64778173828125 0.9997499999999998 Q 3.5697817382812502 0.9314999999999998 3.5697817382812502 0.7769999999999999 L 3.5697817382812502 0.44399999999999984 L 3.46778173828125 0.44399999999999984 L 3.46778173828125 0.23099999999999987 L 3.5697817382812502 0.23099999999999987 L 3.5697817382812502 0.026999999999999913 L 3.82628173828125 0.026999999999999913 L 3.82628173828125 0.23099999999999987 L 3.9942817382812503 0.23099999999999987 L 3.9942817382812503 0.44399999999999984 L 3.82628173828125 0.44399999999999984 L 3.82628173828125 0.7799999999999998 Q 3.82628173828125 0.8174999999999999 3.84428173828125 0.8339999999999999 Q 3.86228173828125 0.8504999999999998 3.90428173828125 0.8504999999999998 L 3.99578173828125 0.8504999999999998 Z M 4.177198974609375 0.2617499999999998 Q 4.244698974609375 0.13949999999999985 4.365448974609375 0.07124999999999981 Q 4.486198974609375 0.0029999999999998916 4.639198974609375 0.0029999999999998916 Q 4.826698974609375 0.0029999999999998916 4.9601989746093755 0.10199999999999987 Q 5.093698974609375 0.20099999999999985 5.138698974609375 0.3719999999999998 L 4.856698974609375 0.3719999999999998 Q 4.825198974609375 0.3059999999999998 4.767448974609375 0.27149999999999985 Q 4.709698974609375 0.23699999999999977 4.636198974609375 0.23699999999999977 Q 4.517698974609376 0.23699999999999977 4.4441989746093755 0.3194999999999998 Q 4.370698974609375 0.4019999999999998 4.370698974609375 0.5399999999999998 Q 4.370698974609375 0.6779999999999998 4.4441989746093755 0.7604999999999998 Q 4.517698974609376 0.8429999999999999 4.636198974609375 0.8429999999999999 Q 4.709698974609375 0.8429999999999999 4.767448974609375 0.8084999999999998 Q 4.825198974609375 0.7739999999999998 4.856698974609375 0.7079999999999999 L 5.138698974609375 0.7079999999999999 Q 5.093698974609375 0.8789999999999998 4.9601989746093755 0.9772499999999998 Q 4.826698974609375 1.0755 4.639198974609375 1.0755 Q 4.486198974609375 1.0755 4.365448974609375 1.0072499999999998 Q 4.244698974609375 0.9389999999999998 4.177198974609375 0.8174999999999999 Q 4.109698974609375 0.6959999999999998 4.109698974609375 0.5399999999999998 Q 4.109698974609375 0.3839999999999998 4.177198974609375 0.2617499999999998 Z M 5.470893310546875 1.0274999999999999 Q 5.3726433105468745 0.9749999999999999 5.316393310546875 0.8774999999999998 Q 5.260143310546875 0.7799999999999998 5.260143310546875 0.6494999999999999 Q 5.260143310546875 0.5204999999999999 5.317143310546875 0.4222499999999998 Q 5.3741433105468746 0.32399999999999984 5.473143310546875 0.27149999999999985 Q 5.572143310546875 0.21899999999999986 5.695143310546875 0.21899999999999986 Q 5.8181433105468745 0.21899999999999986 5.917143310546875 0.27149999999999985 Q 6.016143310546875 0.32399999999999984 6.073143310546875 0.4222499999999998 Q 6.130143310546875 0.5204999999999999 6.130143310546875 0.6494999999999999 Q 6.130143310546875 0.7784999999999999 6.072393310546875 0.8767499999999998 Q 6.014643310546875 0.9749999999999999 5.914893310546875 1.0274999999999999 Q 5.815143310546874 1.0799999999999998 5.692143310546875 1.0799999999999998 Q 5.569143310546875 1.0799999999999998 5.470893310546875 1.0274999999999999 Z M 5.8173933105468745 0.8039999999999998 Q 5.869143310546875 0.7499999999999998 5.869143310546875 0.6494999999999999 Q 5.869143310546875 0.5489999999999998 5.8188933105468745 0.4949999999999998 Q 5.768643310546874 0.44099999999999984 5.695143310546875 0.44099999999999984 Q 5.620143310546875 0.44099999999999984 5.570643310546875 0.49424999999999986 Q 5.521143310546875 0.5474999999999999 5.521143310546875 0.6494999999999999 Q 5.521143310546875 0.7499999999999998 5.569893310546875 0.8039999999999998 Q 5.618643310546875 0.8579999999999999 5.692143310546875 0.8579999999999999 Q 5.765643310546875 0.8579999999999999 5.8173933105468745 0.8039999999999998 Z M 6.650587646484374 0.2617499999999998 Q 6.718087646484374 0.22199999999999986 6.800587646484375 0.22199999999999986 L 6.800587646484375 0.4934999999999998 L 6.730087646484375 0.4934999999999998 Q 6.6340876464843745 0.4934999999999998 6.5860876464843745 0.5347499999999998 Q 6.5380876464843745 0.5759999999999998 6.5380876464843745 0.6794999999999998 L 6.5380876464843745 1.0679999999999998 L 6.2815876464843745 1.0679999999999998 L 6.2815876464843745 0.23099999999999987 L 6.5380876464843745 0.23099999999999987 L 6.5380876464843745 0.37049999999999983 Q 6.583087646484374 0.30149999999999977 6.650587646484374 0.2617499999999998 Z M 7.723055419921875 0.7109999999999999 L 7.142555419921874 0.7109999999999999 Q 7.148555419921874 0.7889999999999998 7.192805419921874 0.8302499999999998 Q 7.237055419921874 0.8714999999999998 7.301555419921875 0.8714999999999998 Q 7.397555419921874 0.8714999999999998 7.435055419921874 0.7904999999999998 L 7.708055419921874 0.7904999999999998 Q 7.687055419921874 0.8729999999999998 7.632305419921874 0.9389999999999998 Q 7.577555419921874 1.005 7.495055419921874 1.0424999999999998 Q 7.412555419921874 1.0799999999999998 7.310555419921874 1.0799999999999998 Q 7.187555419921874 1.0799999999999998 7.091555419921875 1.0274999999999999 Q 6.995555419921875 0.9749999999999999 6.941555419921874 0.8774999999999998 Q 6.887555419921874 0.7799999999999998 6.887555419921874 0.6494999999999999 Q 6.887555419921874 0.5189999999999998 6.940805419921874 0.4214999999999999 Q 6.9940554199218745 0.32399999999999984 7.090055419921875 0.27149999999999985 Q 7.186055419921875 0.21899999999999986 7.310555419921874 0.21899999999999986 Q 7.432055419921874 0.21899999999999986 7.526555419921874 0.2699999999999998 Q 7.621055419921874 0.32099999999999984 7.6743054199218745 0.41549999999999987 Q 7.727555419921874 0.5099999999999998 7.727555419921874 0.6359999999999999 Q 7.727555419921874 0.6719999999999998 7.723055419921875 0.7109999999999999 Z M 7.465055419921875 0.5684999999999998 Q 7.465055419921875 0.5024999999999998 7.420055419921875 0.4634999999999998 Q 7.375055419921874 0.4244999999999999 7.307555419921874 0.4244999999999999 Q 7.243055419921874 0.4244999999999999 7.198805419921874 0.46199999999999986 Q 7.154555419921874 0.49949999999999983 7.144055419921874 0.5684999999999998 L 7.465055419921875 0.5684999999999998 Z M 8.384468261718748 1.041 Q 8.292968261718748 1.0034999999999998 8.238218261718748 0.9299999999999998 Q 8.18346826171875 0.8564999999999998 8.18046826171875 0.7529999999999999 L 8.453468261718749 0.7529999999999999 Q 8.459468261718749 0.8114999999999999 8.493968261718749 0.8422499999999998 Q 8.528468261718748 0.8729999999999998 8.583968261718748 0.8729999999999998 Q 8.640968261718749 0.8729999999999998 8.673968261718748 0.8467499999999999 Q 8.706968261718748 0.8204999999999998 8.706968261718748 0.7739999999999998 Q 8.706968261718748 0.7349999999999999 8.680718261718749 0.7094999999999998 Q 8.65446826171875 0.6839999999999998 8.616218261718748 0.6674999999999998 Q 8.577968261718748 0.6509999999999998 8.50746826171875 0.6299999999999999 Q 8.405468261718749 0.5984999999999998 8.340968261718748 0.5669999999999998 Q 8.27646826171875 0.5354999999999999 8.22996826171875 0.47399999999999987 Q 8.18346826171875 0.41249999999999987 8.18346826171875 0.3134999999999998 Q 8.18346826171875 0.16649999999999987 8.289968261718748 0.08324999999999982 Q 8.396468261718748 -2.220446049250313e-16 8.567468261718748 -2.220446049250313e-16 Q 8.74146826171875 -2.220446049250313e-16 8.847968261718748 0.08324999999999982 Q 8.954468261718748 0.16649999999999987 8.961968261718749 0.31499999999999984 L 8.684468261718749 0.31499999999999984 Q 8.681468261718749 0.2639999999999998 8.646968261718749 0.2347499999999998 Q 8.612468261718748 0.2054999999999998 8.55846826171875 0.2054999999999998 Q 8.51196826171875 0.2054999999999998 8.483468261718748 0.23024999999999984 Q 8.454968261718749 0.2549999999999998 8.454968261718749 0.30149999999999977 Q 8.454968261718749 0.3524999999999998 8.502968261718749 0.3809999999999998 Q 8.550968261718749 0.40949999999999986 8.65296826171875 0.4424999999999998 Q 8.754968261718748 0.47699999999999987 8.818718261718749 0.5084999999999998 Q 8.88246826171875 0.5399999999999998 8.92896826171875 0.5999999999999999 Q 8.97546826171875 0.6599999999999998 8.97546826171875 0.7544999999999998 Q 8.97546826171875 0.8444999999999998 8.92971826171875 0.9179999999999998 Q 8.88396826171875 0.9914999999999998 8.79696826171875 1.035 Q 8.709968261718748 1.0784999999999998 8.591468261718749 1.0784999999999998 Q 8.475968261718748 1.0784999999999998 8.384468261718748 1.041 Z M 10.00295361328125 0.23099999999999987 L 9.47795361328125 1.4654999999999998 L 9.20195361328125 1.4654999999999998 L 9.39395361328125 1.0394999999999999 L 9.053453613281249 0.23099999999999987 L 9.33995361328125 0.23099999999999987 L 9.53345361328125 0.7544999999999998 L 9.72545361328125 0.23099999999999987 L 10.00295361328125 0.23099999999999987 Z M 10.256390625 1.0424999999999998 Q 10.170890625 1.005 10.121390625 0.9397499999999999 Q 10.071890625 0.8744999999999998 10.065890625 0.7934999999999999 L 10.319390625 0.7934999999999999 Q 10.323890624999999 0.8369999999999999 10.359890625 0.8639999999999999 Q 10.395890625 0.8909999999999998 10.448390625 0.8909999999999998 Q 10.496390625 0.8909999999999998 10.522640625 0.8722499999999999 Q 10.548890625 0.8534999999999998 10.548890625 0.8234999999999999 Q 10.548890625 0.7874999999999999 10.511390624999999 0.7702499999999999 Q 10.473890625 0.7529999999999999 10.389890625 0.7319999999999998 Q 10.299890625 0.7109999999999999 10.239890625 0.6877499999999999 Q 10.179890625 0.6644999999999999 10.136390624999999 0.6142499999999999 Q 10.092890624999999 0.5639999999999998 10.092890624999999 0.4784999999999998 Q 10.092890624999999 0.40649999999999986 10.132640625 0.34724999999999984 Q 10.172390625 0.2879999999999998 10.249640625 0.25349999999999984 Q 10.326890624999999 0.21899999999999986 10.433390625 0.21899999999999986 Q 10.590890625 0.21899999999999986 10.681640625 0.2969999999999998 Q 10.772390625 0.3749999999999998 10.785890625 0.5039999999999998 L 10.548890625 0.5039999999999998 Q 10.542890625 0.4604999999999998 10.510640625 0.43499999999999983 Q 10.478390625 0.40949999999999986 10.425890625 0.40949999999999986 Q 10.380890625 0.40949999999999986 10.356890625 0.42674999999999985 Q 10.332890625 0.44399999999999984 10.332890625 0.47399999999999987 Q 10.332890625 0.5099999999999998 10.371140624999999 0.5279999999999998 Q 10.409390625 0.5459999999999998 10.490390625 0.5639999999999998 Q 10.583390625 0.5879999999999999 10.641890625 0.6112499999999998 Q 10.700390624999999 0.6344999999999998 10.744640624999999 0.6862499999999998 Q 10.788890625 0.7379999999999998 10.790390625 0.8249999999999998 Q 10.790390625 0.8984999999999999 10.749140624999999 0.9562499999999998 Q 10.707890625 1.0139999999999998 10.630640625 1.047 Q 10.553390625 1.0799999999999998 10.451390625 1.0799999999999998 Q 10.341890625 1.0799999999999998 10.256390625 1.0424999999999998 Z M 11.42936572265625 0.8504999999999998 L 11.42936572265625 1.0679999999999998 L 11.29886572265625 1.0679999999999998 Q 11.15936572265625 1.0679999999999998 11.08136572265625 0.9997499999999998 Q 11.00336572265625 0.9314999999999998 11.00336572265625 0.7769999999999999 L 11.00336572265625 0.44399999999999984 L 10.90136572265625 0.44399999999999984 L 10.90136572265625 0.23099999999999987 L 11.00336572265625 0.23099999999999987 L 11.00336572265625 0.026999999999999913 L 11.25986572265625 0.026999999999999913 L 11.25986572265625 0.23099999999999987 L 11.42786572265625 0.23099999999999987 L 11.42786572265625 0.44399999999999984 L 11.25986572265625 0.44399999999999984 L 11.25986572265625 0.7799999999999998 Q 11.25986572265625 0.8174999999999999 11.27786572265625 0.8339999999999999 Q 11.29586572265625 0.8504999999999998 11.33786572265625 0.8504999999999998 L 11.42936572265625 0.8504999999999998 Z M 12.371282958984375 0.7109999999999999 L 11.790782958984376 0.7109999999999999 Q 11.796782958984377 0.7889999999999998 11.841032958984377 0.8302499999999998 Q 11.885282958984376 0.8714999999999998 11.949782958984375 0.8714999999999998 Q 12.045782958984375 0.8714999999999998 12.083282958984375 0.7904999999999998 L 12.356282958984377 0.7904999999999998 Q 12.335282958984376 0.8729999999999998 12.280532958984375 0.9389999999999998 Q 12.225782958984375 1.005 12.143282958984376 1.0424999999999998 Q 12.060782958984376 1.0799999999999998 11.958782958984376 1.0799999999999998 Q 11.835782958984376 1.0799999999999998 11.739782958984376 1.0274999999999999 Q 11.643782958984376 0.9749999999999999 11.589782958984376 0.8774999999999998 Q 11.535782958984376 0.7799999999999998 11.535782958984376 0.6494999999999999 Q 11.535782958984376 0.5189999999999998 11.589032958984376 0.4214999999999999 Q 11.642282958984376 0.32399999999999984 11.738282958984376 0.27149999999999985 Q 11.834282958984376 0.21899999999999986 11.958782958984376 0.21899999999999986 Q 12.080282958984377 0.21899999999999986 12.174782958984377 0.2699999999999998 Q 12.269282958984375 0.32099999999999984 12.322532958984375 0.41549999999999987 Q 12.375782958984376 0.5099999999999998 12.375782958984376 0.6359999999999999 Q 12.375782958984376 0.6719999999999998 12.371282958984375 0.7109999999999999 Z M 12.113282958984376 0.5684999999999998 Q 12.113282958984376 0.5024999999999998 12.068282958984376 0.4634999999999998 Q 12.023282958984376 0.4244999999999999 11.955782958984376 0.4244999999999999 Q 11.891282958984377 0.4244999999999999 11.847032958984375 0.46199999999999986 Q 11.802782958984375 0.49949999999999983 11.792282958984377 0.5684999999999998 L 12.113282958984376 0.5684999999999998 Z M 13.841983154296877 0.3164999999999998 Q 13.934233154296876 0.4109999999999998 13.934233154296876 0.5789999999999998 L 13.934233154296876 1.0679999999999998 L 13.679233154296876 1.0679999999999998 L 13.679233154296876 0.6134999999999998 Q 13.679233154296876 0.5324999999999999 13.636483154296876 0.48824999999999985 Q 13.593733154296876 0.44399999999999984 13.518733154296877 0.44399999999999984 Q 13.443733154296876 0.44399999999999984 13.400983154296876 0.48824999999999985 Q 13.358233154296876 0.5324999999999999 13.358233154296876 0.6134999999999998 L 13.358233154296876 1.0679999999999998 L 13.103233154296877 1.0679999999999998 L 13.103233154296877 0.6134999999999998 Q 13.103233154296877 0.5324999999999999 13.060483154296877 0.48824999999999985 Q 13.017733154296877 0.44399999999999984 12.942733154296876 0.44399999999999984 Q 12.867733154296877 0.44399999999999984 12.824983154296877 0.48824999999999985 Q 12.782233154296877 0.5324999999999999 12.782233154296877 0.6134999999999998 L 12.782233154296877 1.0679999999999998 L 12.525733154296876 1.0679999999999998 L 12.525733154296876 0.23099999999999987 L 12.782233154296877 0.23099999999999987 L 12.782233154296877 0.33599999999999985 Q 12.821233154296877 0.28349999999999986 12.884233154296876 0.2527499999999998 Q 12.947233154296876 0.22199999999999986 13.026733154296876 0.22199999999999986 Q 13.121233154296876 0.22199999999999986 13.195483154296877 0.26249999999999984 Q 13.269733154296876 0.3029999999999998 13.311733154296876 0.3779999999999998 Q 13.355233154296876 0.30899999999999983 13.430233154296877 0.26549999999999985 Q 13.505233154296876 0.22199999999999986 13.593733154296876 0.22199999999999986 Q 13.749733154296877 0.22199999999999986 13.841983154296877 0.3164999999999998 Z M 14.274673095703127 1.0424999999999998 Q 14.189173095703127 1.005 14.139673095703127 0.9397499999999999 Q 14.090173095703127 0.8744999999999998 14.084173095703127 0.7934999999999999 L 14.337673095703128 0.7934999999999999 Q 14.342173095703126 0.8369999999999999 14.378173095703128 0.8639999999999999 Q 14.414173095703127 0.8909999999999998 14.466673095703127 0.8909999999999998 Q 14.514673095703127 0.8909999999999998 14.540923095703127 0.8722499999999999 Q 14.567173095703128 0.8534999999999998 14.567173095703128 0.8234999999999999 Q 14.567173095703128 0.7874999999999999 14.529673095703126 0.7702499999999999 Q 14.492173095703127 0.7529999999999999 14.408173095703127 0.7319999999999998 Q 14.318173095703127 0.7109999999999999 14.258173095703127 0.6877499999999999 Q 14.198173095703128 0.6644999999999999 14.154673095703126 0.6142499999999999 Q 14.111173095703126 0.5639999999999998 14.111173095703126 0.4784999999999998 Q 14.111173095703126 0.40649999999999986 14.150923095703128 0.34724999999999984 Q 14.190673095703128 0.2879999999999998 14.267923095703127 0.25349999999999984 Q 14.345173095703126 0.21899999999999986 14.451673095703127 0.21899999999999986 Q 14.609173095703127 0.21899999999999986 14.699923095703127 0.2969999999999998 Q 14.790673095703127 0.3749999999999998 14.804173095703128 0.5039999999999998 L 14.567173095703128 0.5039999999999998 Q 14.561173095703127 0.4604999999999998 14.528923095703128 0.43499999999999983 Q 14.496673095703127 0.40949999999999986 14.444173095703126 0.40949999999999986 Q 14.399173095703127 0.40949999999999986 14.375173095703127 0.42674999999999985 Q 14.351173095703126 0.44399999999999984 14.351173095703126 0.47399999999999987 Q 14.351173095703126 0.5099999999999998 14.389423095703126 0.5279999999999998 Q 14.427673095703128 0.5459999999999998 14.508673095703127 0.5639999999999998 Q 14.601673095703127 0.5879999999999999 14.660173095703128 0.6112499999999998 Q 14.718673095703126 0.6344999999999998 14.762923095703126 0.6862499999999998 Q 14.807173095703128 0.7379999999999998 14.808673095703128 0.8249999999999998 Q 14.808673095703128 0.8984999999999999 14.767423095703126 0.9562499999999998 Q 14.726173095703126 1.0139999999999998 14.648923095703127 1.047 Q 14.571673095703128 1.0799999999999998 14.469673095703127 1.0799999999999998 Q 14.360173095703127 1.0799999999999998 14.274673095703127 1.0424999999999998 Z" fill="#1c3423" fill-rule="nonzero"></path></g><g><path d=" M 7.580557750355115 1.8287931818181817 Q 7.5399895685369325 1.867997727272727 7.4568077503551145 1.867997727272727 L 7.365444113991478 1.867997727272727 L 7.365444113991478 2.066406818181818 L 7.303398659446024 2.066406818181818 L 7.303398659446024 1.5911795454545454 L 7.4568077503551145 1.5911795454545454 Q 7.53726229580966 1.5911795454545454 7.579194113991478 1.6300431818181818 Q 7.621125932173296 1.668906818181818 7.621125932173296 1.7302704545454544 Q 7.621125932173296 1.7895886363636362 7.580557750355115 1.8287931818181817 Z M 7.533171386718751 1.7943613636363636 Q 7.557716841264205 1.7718613636363636 7.557716841264205 1.7302704545454544 Q 7.557716841264205 1.642315909090909 7.4568077503551145 1.642315909090909 L 7.365444113991478 1.642315909090909 L 7.365444113991478 1.8168613636363635 L 7.4568077503551145 1.8168613636363635 Q 7.508625932173296 1.8168613636363635 7.533171386718751 1.7943613636363636 Z M 7.8137255859375 1.7036795454545453 Q 7.844066495028409 1.6859522727272727 7.887702858664773 1.6859522727272727 L 7.887702858664773 1.7500431818181816 L 7.8713392223011365 1.7500431818181816 Q 7.7670210404829545 1.7500431818181816 7.7670210404829545 1.863225 L 7.7670210404829545 2.066406818181818 L 7.7049755859375 2.066406818181818 L 7.7049755859375 1.6927704545454545 L 7.7670210404829545 1.6927704545454545 L 7.7670210404829545 1.7534522727272726 Q 7.783384676846591 1.721406818181818 7.8137255859375 1.7036795454545453 Z M 8.033943204012784 2.0486795454545454 Q 7.9913295676491485 2.024815909090909 7.967125022194603 1.9808386363636363 Q 7.942920476740057 1.9368613636363634 7.942920476740057 1.878906818181818 Q 7.942920476740057 1.821634090909091 7.96780684037642 1.7776568181818182 Q 7.9926932040127845 1.7336795454545453 8.03564774946733 1.710156818181818 Q 8.078602294921875 1.6866340909090907 8.131784113103693 1.6866340909090907 Q 8.184965931285511 1.6866340909090907 8.227920476740056 1.710156818181818 Q 8.270875022194602 1.7336795454545453 8.295761385830966 1.777315909090909 Q 8.32064774946733 1.8209522727272727 8.32064774946733 1.878906818181818 Q 8.32064774946733 1.9368613636363634 8.295079567649148 1.9808386363636363 Q 8.269511385830967 2.024815909090909 8.225875022194602 2.0486795454545454 Q 8.182238658558239 2.072543181818182 8.129056840376421 2.072543181818182 Q 8.076556840376421 2.072543181818182 8.033943204012784 2.0486795454545454 Z M 8.191784113103694 2.002315909090909 Q 8.221102294921875 1.9866340909090907 8.239170476740057 1.9552704545454545 Q 8.257238658558238 1.923906818181818 8.257238658558238 1.878906818181818 Q 8.257238658558238 1.833906818181818 8.239511385830966 1.8025431818181816 Q 8.221784113103693 1.7711795454545454 8.19314774946733 1.7558386363636362 Q 8.164511385830966 1.7404977272727271 8.131102294921876 1.7404977272727271 Q 8.097011385830966 1.7404977272727271 8.068715931285512 1.7558386363636362 Q 8.040420476740056 1.7711795454545454 8.023375022194603 1.8025431818181816 Q 8.006329567649148 1.833906818181818 8.006329567649148 1.878906818181818 Q 8.006329567649148 1.9245886363636362 8.023034113103694 1.9559522727272727 Q 8.039738658558239 1.987315909090909 8.067693204012784 2.002656818181818 Q 8.09564774946733 2.017997727272727 8.129056840376421 2.017997727272727 Q 8.162465931285512 2.017997727272727 8.191784113103694 2.002315909090909 Z M 8.484934303977274 1.743906818181818 L 8.484934303977274 1.9641340909090907 Q 8.484934303977274 1.991406818181818 8.496525213068184 2.002656818181818 Q 8.508116122159091 2.013906818181818 8.536752485795455 2.013906818181818 L 8.582434303977275 2.013906818181818 L 8.582434303977275 2.066406818181818 L 8.526525213068183 2.066406818181818 Q 8.47470703125 2.066406818181818 8.44879794034091 2.0425431818181816 Q 8.42288884943182 2.018679545454545 8.42288884943182 1.9641340909090907 L 8.42288884943182 1.743906818181818 L 8.374479758522728 1.743906818181818 L 8.374479758522728 1.6927704545454545 L 8.42288884943182 1.6927704545454545 L 8.42288884943182 1.5986795454545453 L 8.484934303977274 1.5986795454545453 L 8.484934303977274 1.6927704545454545 L 8.582434303977275 1.6927704545454545 L 8.582434303977275 1.743906818181818 L 8.484934303977274 1.743906818181818 Z M 9.003083829012784 1.9027704545454545 L 8.70444746537642 1.9027704545454545 Q 8.707856556285511 1.9579977272727271 8.74228837446733 1.9890204545454544 Q 8.776720192649147 2.0200431818181817 8.825811101740058 2.0200431818181817 Q 8.86603837446733 2.0200431818181817 8.892970192649148 2.001293181818182 Q 8.919902010830967 1.9825431818181816 8.930811101740057 1.9511795454545453 L 8.99762928355824 1.9511795454545453 Q 8.98262928355824 2.0050431818181815 8.93762928355824 2.0387931818181815 Q 8.89262928355824 2.072543181818182 8.825811101740058 2.072543181818182 Q 8.772629283558238 2.072543181818182 8.730697465376421 2.0486795454545454 Q 8.688765647194602 2.024815909090909 8.664902010830966 1.9808386363636363 Q 8.64103837446733 1.9368613636363634 8.64103837446733 1.878906818181818 Q 8.64103837446733 1.8209522727272727 8.664220192649148 1.777315909090909 Q 8.687402010830967 1.7336795454545453 8.729333829012784 1.710156818181818 Q 8.771265647194603 1.6866340909090907 8.825811101740058 1.6866340909090907 Q 8.878992919921876 1.6866340909090907 8.919902010830967 1.709815909090909 Q 8.960811101740058 1.732997727272727 8.982970192649148 1.773565909090909 Q 9.005129283558238 1.8141340909090908 9.005129283558238 1.8652704545454544 Q 9.005129283558238 1.8829977272727272 9.003083829012784 1.9027704545454545 Z M 8.925356556285513 1.7912931818181816 Q 8.909674738103694 1.7657249999999998 8.882742919921876 1.7524295454545453 Q 8.855811101740057 1.7391340909090909 8.823083829012784 1.7391340909090909 Q 8.77603837446733 1.7391340909090909 8.742970192649148 1.7691340909090907 Q 8.709902010830966 1.7991340909090907 8.70512928355824 1.852315909090909 L 8.94103837446733 1.852315909090909 Q 8.94103837446733 1.8168613636363635 8.925356556285513 1.7912931818181816 Z M 9.093762318004263 1.7776568181818182 Q 9.116944136186081 1.7343613636363635 9.158194136186081 1.710497727272727 Q 9.19944413618608 1.6866340909090907 9.252625954367899 1.6866340909090907 Q 9.321489590731534 1.6866340909090907 9.366148681640626 1.7200431818181818 Q 9.410807772549717 1.7534522727272726 9.4251259543679 1.8127704545454544 L 9.358307772549717 1.8127704545454544 Q 9.348762318004262 1.7786795454545454 9.321148681640626 1.758906818181818 Q 9.29353504527699 1.7391340909090909 9.252625954367899 1.7391340909090909 Q 9.19944413618608 1.7391340909090909 9.166716863458808 1.7756113636363635 Q 9.133989590731534 1.8120886363636362 9.133989590731534 1.878906818181818 Q 9.133989590731534 1.946406818181818 9.166716863458808 1.9832249999999998 Q 9.19944413618608 2.0200431818181817 9.252625954367899 2.0200431818181817 Q 9.29353504527699 2.0200431818181817 9.320807772549717 2.0009522727272726 Q 9.348080499822444 1.9818613636363636 9.358307772549717 1.946406818181818 L 9.4251259543679 1.946406818181818 Q 9.4101259543679 2.0036795454545455 9.3651259543679 2.0381113636363635 Q 9.3201259543679 2.072543181818182 9.252625954367899 2.072543181818182 Q 9.19944413618608 2.072543181818182 9.158194136186081 2.0486795454545454 Q 9.116944136186081 2.024815909090909 9.093762318004263 1.9811795454545453 Q 9.070580499822444 1.9375431818181816 9.070580499822444 1.878906818181818 Q 9.070580499822444 1.8209522727272727 9.093762318004263 1.7776568181818182 Z M 9.590122292258524 1.743906818181818 L 9.590122292258524 1.9641340909090907 Q 9.590122292258524 1.991406818181818 9.601713201349433 2.002656818181818 Q 9.61330411044034 2.013906818181818 9.641940474076705 2.013906818181818 L 9.687622292258524 2.013906818181818 L 9.687622292258524 2.066406818181818 L 9.631713201349433 2.066406818181818 Q 9.57989501953125 2.066406818181818 9.55398592862216 2.0425431818181816 Q 9.52807683771307 2.018679545454545 9.52807683771307 1.9641340909090907 L 9.52807683771307 1.743906818181818 L 9.479667746803978 1.743906818181818 L 9.479667746803978 1.6927704545454545 L 9.52807683771307 1.6927704545454545 L 9.52807683771307 1.5986795454545453 L 9.590122292258524 1.5986795454545453 L 9.590122292258524 1.6927704545454545 L 9.687622292258524 1.6927704545454545 L 9.687622292258524 1.743906818181818 L 9.590122292258524 1.743906818181818 Z M 9.771453635475853 1.619815909090909 Q 9.759180908203126 1.6075431818181818 9.759180908203126 1.589815909090909 Q 9.759180908203126 1.5720886363636364 9.771453635475853 1.559815909090909 Q 9.78372636274858 1.5475431818181817 9.801453635475852 1.5475431818181817 Q 9.818499090021307 1.5475431818181817 9.830430908203125 1.559815909090909 Q 9.842362726384943 1.5720886363636364 9.842362726384943 1.589815909090909 Q 9.842362726384943 1.6075431818181818 9.830430908203125 1.619815909090909 Q 9.818499090021307 1.6320886363636362 9.801453635475852 1.6320886363636362 Q 9.78372636274858 1.6320886363636362 9.771453635475853 1.619815909090909 Z M 9.831453635475853 1.6927704545454545 L 9.831453635475853 2.066406818181818 L 9.769408180930398 2.066406818181818 L 9.769408180930398 1.6927704545454545 L 9.831453635475853 1.6927704545454545 Z M 10.236434326171876 1.7272022727272727 Q 10.278707053444602 1.7684522727272727 10.278707053444602 1.8461795454545453 L 10.278707053444602 2.066406818181818 L 10.217343417080967 2.066406818181818 L 10.217343417080967 1.8550431818181816 Q 10.217343417080967 1.7991340909090907 10.189388871626422 1.769475 Q 10.161434326171875 1.7398159090909089 10.113025235262784 1.7398159090909089 Q 10.063934326171875 1.7398159090909089 10.034957053444602 1.7704977272727271 Q 10.00597978071733 1.8011795454545454 10.00597978071733 1.859815909090909 L 10.00597978071733 2.066406818181818 L 9.943934326171876 2.066406818181818 L 9.943934326171876 1.6927704545454545 L 10.00597978071733 1.6927704545454545 L 10.00597978071733 1.7459522727272727 Q 10.024388871626421 1.717315909090909 10.056093417080966 1.7016340909090908 Q 10.087797962535513 1.6859522727272727 10.12597978071733 1.6859522727272727 Q 10.194161598899148 1.6859522727272727 10.236434326171876 1.7272022727272727 Z M 10.626061789772727 1.7077704545454544 Q 10.6625390625 1.7289068181818181 10.680266335227273 1.7609522727272726 L 10.680266335227273 1.6927704545454545 L 10.742993607954546 1.6927704545454545 L 10.742993607954546 2.0745886363636363 Q 10.742993607954546 2.1257249999999996 10.721175426136364 2.1656113636363634 Q 10.699357244318183 2.205497727272727 10.6587890625 2.227997727272727 Q 10.618220880681818 2.250497727272727 10.564357244318183 2.250497727272727 Q 10.490720880681819 2.250497727272727 10.44162997159091 2.215725 Q 10.392539062500001 2.1809522727272728 10.383675426136364 2.1209522727272727 L 10.445039062500001 2.1209522727272727 Q 10.455266335227273 2.155043181818182 10.487311789772727 2.175838636363636 Q 10.519357244318183 2.196634090909091 10.564357244318183 2.196634090909091 Q 10.615493607954546 2.196634090909091 10.647879971590909 2.164588636363636 Q 10.680266335227273 2.1325431818181815 10.680266335227273 2.0745886363636363 L 10.680266335227273 1.9961795454545452 Q 10.661857244318183 2.028906818181818 10.625720880681818 2.050725 Q 10.589584517045456 2.072543181818182 10.541175426136364 2.072543181818182 Q 10.491402698863636 2.072543181818182 10.450834517045456 2.047997727272727 Q 10.410266335227274 2.0234522727272726 10.387084517045455 1.9791340909090909 Q 10.363902698863637 1.934815909090909 10.363902698863637 1.8782249999999998 Q 10.363902698863637 1.8209522727272727 10.387084517045455 1.7776568181818182 Q 10.410266335227274 1.7343613636363635 10.450834517045456 1.710497727272727 Q 10.491402698863636 1.6866340909090907 10.541175426136364 1.6866340909090907 Q 10.589584517045456 1.6866340909090907 10.626061789772727 1.7077704545454544 Z M 10.663220880681818 1.8052704545454543 Q 10.646175426136365 1.773906818181818 10.617198153409092 1.7572022727272727 Q 10.588220880681819 1.7404977272727271 10.553448153409091 1.7404977272727271 Q 10.518675426136364 1.7404977272727271 10.490039062500001 1.7568613636363635 Q 10.461402698863637 1.7732249999999998 10.444357244318182 1.8045886363636363 Q 10.427311789772727 1.8359522727272726 10.427311789772727 1.8782249999999998 Q 10.427311789772727 1.9211795454545453 10.444357244318182 1.9528840909090908 Q 10.461402698863637 1.9845886363636362 10.490039062500001 2.001293181818182 Q 10.518675426136364 2.017997727272727 10.553448153409091 2.017997727272727 Q 10.588220880681819 2.017997727272727 10.617198153409092 2.001293181818182 Q 10.646175426136365 1.9845886363636362 10.663220880681818 1.9528840909090908 Q 10.680266335227273 1.9211795454545453 10.680266335227273 1.878906818181818 Q 10.680266335227273 1.8366340909090908 10.663220880681818 1.8052704545454543 Z M 11.043629150390625 1.7776568181818182 Q 11.066810968572444 1.7343613636363635 11.107379150390626 1.710497727272727 Q 11.147947332208807 1.6866340909090907 11.198401877663352 1.6866340909090907 Q 11.242038241299715 1.6866340909090907 11.279538241299717 1.7067477272727272 Q 11.317038241299716 1.7268613636363634 11.336810968572443 1.7595886363636364 L 11.336810968572443 1.5618613636363636 L 11.399538241299716 1.5618613636363636 L 11.399538241299716 2.066406818181818 L 11.336810968572443 2.066406818181818 L 11.336810968572443 1.9961795454545452 Q 11.318401877663353 2.0295886363636364 11.282265514026989 2.051065909090909 Q 11.246129150390626 2.072543181818182 11.197720059481535 2.072543181818182 Q 11.147947332208807 2.072543181818182 11.107379150390626 2.047997727272727 Q 11.066810968572444 2.0234522727272726 11.043629150390625 1.9791340909090909 Q 11.020447332208807 1.934815909090909 11.020447332208807 1.8782249999999998 Q 11.020447332208807 1.8209522727272727 11.043629150390625 1.7776568181818182 Z M 11.319765514026988 1.8052704545454543 Q 11.302720059481535 1.773906818181818 11.273742786754262 1.7572022727272727 Q 11.244765514026989 1.7404977272727271 11.209992786754261 1.7404977272727271 Q 11.175220059481534 1.7404977272727271 11.146583695845171 1.7568613636363635 Q 11.117947332208807 1.7732249999999998 11.100901877663352 1.8045886363636363 Q 11.083856423117897 1.8359522727272726 11.083856423117897 1.8782249999999998 Q 11.083856423117897 1.9211795454545453 11.100901877663352 1.9528840909090908 Q 11.117947332208807 1.9845886363636362 11.146583695845171 2.001293181818182 Q 11.175220059481534 2.017997727272727 11.209992786754261 2.017997727272727 Q 11.244765514026989 2.017997727272727 11.273742786754262 2.001293181818182 Q 11.302720059481535 1.9845886363636362 11.319765514026988 1.9528840909090908 Q 11.336810968572443 1.9211795454545453 11.336810968572443 1.878906818181818 Q 11.336810968572443 1.8366340909090908 11.319765514026988 1.8052704545454543 Z M 11.51133212002841 1.7776568181818182 Q 11.534513938210228 1.7343613636363635 11.57508212002841 1.710497727272727 Q 11.61565030184659 1.6866340909090907 11.665423029119319 1.6866340909090907 Q 11.714513938210228 1.6866340909090907 11.75065030184659 1.7077704545454544 Q 11.786786665482955 1.7289068181818181 11.804513938210228 1.7609522727272726 L 11.804513938210228 1.6927704545454545 L 11.8672412109375 1.6927704545454545 L 11.8672412109375 2.066406818181818 L 11.804513938210228 2.066406818181818 L 11.804513938210228 1.9968613636363635 Q 11.786104847301138 2.0295886363636364 11.749627574573864 2.051065909090909 Q 11.713150301846591 2.072543181818182 11.6647412109375 2.072543181818182 Q 11.614968483664773 2.072543181818182 11.5747412109375 2.047997727272727 Q 11.534513938210228 2.0234522727272726 11.51133212002841 1.9791340909090909 Q 11.488150301846591 1.934815909090909 11.488150301846591 1.8782249999999998 Q 11.488150301846591 1.8209522727272727 11.51133212002841 1.7776568181818182 Z M 11.787468483664773 1.8052704545454543 Q 11.77042302911932 1.773906818181818 11.741445756392046 1.7572022727272727 Q 11.712468483664773 1.7404977272727271 11.677695756392046 1.7404977272727271 Q 11.642923029119318 1.7404977272727271 11.614286665482956 1.7568613636363635 Q 11.585650301846592 1.7732249999999998 11.568604847301136 1.8045886363636363 Q 11.551559392755681 1.8359522727272726 11.551559392755681 1.8782249999999998 Q 11.551559392755681 1.9211795454545453 11.568604847301136 1.9528840909090908 Q 11.585650301846592 1.9845886363636362 11.614286665482956 2.001293181818182 Q 11.642923029119318 2.017997727272727 11.677695756392046 2.017997727272727 Q 11.712468483664773 2.017997727272727 11.741445756392046 2.001293181818182 Q 11.77042302911932 1.9845886363636362 11.787468483664773 1.9528840909090908 Q 11.804513938210228 1.9211795454545453 11.804513938210228 1.878906818181818 Q 11.804513938210228 1.8366340909090908 11.787468483664773 1.8052704545454543 Z M 12.054716907848013 1.743906818181818 L 12.054716907848013 1.9641340909090907 Q 12.054716907848013 1.991406818181818 12.066307816938922 2.002656818181818 Q 12.07789872602983 2.013906818181818 12.106535089666194 2.013906818181818 L 12.152216907848013 2.013906818181818 L 12.152216907848013 2.066406818181818 L 12.096307816938921 2.066406818181818 Q 12.044489635120739 2.066406818181818 12.018580544211648 2.0425431818181816 Q 11.992671453302558 2.018679545454545 11.992671453302558 1.9641340909090907 L 11.992671453302558 1.743906818181818 L 11.944262362393467 1.743906818181818 L 11.944262362393467 1.6927704545454545 L 11.992671453302558 1.6927704545454545 L 11.992671453302558 1.5986795454545453 L 12.054716907848013 1.5986795454545453 L 12.054716907848013 1.6927704545454545 L 12.152216907848013 1.6927704545454545 L 12.152216907848013 1.743906818181818 L 12.054716907848013 1.743906818181818 Z M 12.234002796519887 1.7776568181818182 Q 12.257184614701705 1.7343613636363635 12.297752796519887 1.710497727272727 Q 12.338320978338068 1.6866340909090907 12.388093705610796 1.6866340909090907 Q 12.437184614701705 1.6866340909090907 12.473320978338068 1.7077704545454544 Q 12.509457341974432 1.7289068181818181 12.527184614701705 1.7609522727272726 L 12.527184614701705 1.6927704545454545 L 12.589911887428977 1.6927704545454545 L 12.589911887428977 2.066406818181818 L 12.527184614701705 2.066406818181818 L 12.527184614701705 1.9968613636363635 Q 12.508775523792615 2.0295886363636364 12.472298251065341 2.051065909090909 Q 12.435820978338068 2.072543181818182 12.387411887428977 2.072543181818182 Q 12.33763916015625 2.072543181818182 12.297411887428977 2.047997727272727 Q 12.257184614701705 2.0234522727272726 12.234002796519887 1.9791340909090909 Q 12.210820978338068 1.934815909090909 12.210820978338068 1.8782249999999998 Q 12.210820978338068 1.8209522727272727 12.234002796519887 1.7776568181818182 Z M 12.51013916015625 1.8052704545454543 Q 12.493093705610796 1.773906818181818 12.464116432883523 1.7572022727272727 Q 12.43513916015625 1.7404977272727271 12.400366432883523 1.7404977272727271 Q 12.365593705610795 1.7404977272727271 12.336957341974433 1.7568613636363635 Q 12.308320978338068 1.7732249999999998 12.291275523792613 1.8045886363636363 Q 12.274230069247158 1.8359522727272726 12.274230069247158 1.8782249999999998 Q 12.274230069247158 1.9211795454545453 12.291275523792613 1.9528840909090908 Q 12.308320978338068 1.9845886363636362 12.336957341974433 2.001293181818182 Q 12.365593705610795 2.017997727272727 12.400366432883523 2.017997727272727 Q 12.43513916015625 2.017997727272727 12.464116432883523 2.001293181818182 Q 12.493093705610796 1.9845886363636362 12.51013916015625 1.9528840909090908 Q 12.527184614701705 1.9211795454545453 12.527184614701705 1.878906818181818 Q 12.527184614701705 1.8366340909090908 12.51013916015625 1.8052704545454543 Z M 12.892592884410512 1.619815909090909 Q 12.880320157137785 1.6075431818181818 12.880320157137785 1.589815909090909 Q 12.880320157137785 1.5720886363636364 12.892592884410512 1.559815909090909 Q 12.904865611683238 1.5475431818181817 12.922592884410511 1.5475431818181817 Q 12.939638338955966 1.5475431818181817 12.951570157137784 1.559815909090909 Q 12.963501975319602 1.5720886363636364 12.963501975319602 1.589815909090909 Q 12.963501975319602 1.6075431818181818 12.951570157137784 1.619815909090909 Q 12.939638338955966 1.6320886363636362 12.922592884410511 1.6320886363636362 Q 12.904865611683238 1.6320886363636362 12.892592884410512 1.619815909090909 Z M 12.952592884410512 1.6927704545454545 L 12.952592884410512 2.066406818181818 L 12.890547429865057 2.066406818181818 L 12.890547429865057 1.6927704545454545 L 12.952592884410512 1.6927704545454545 Z M 13.357573575106535 1.7272022727272727 Q 13.399846302379261 1.7684522727272727 13.399846302379261 1.8461795454545453 L 13.399846302379261 2.066406818181818 L 13.338482666015626 2.066406818181818 L 13.338482666015626 1.8550431818181816 Q 13.338482666015626 1.7991340909090907 13.31052812056108 1.769475 Q 13.282573575106534 1.7398159090909089 13.234164484197443 1.7398159090909089 Q 13.185073575106534 1.7398159090909089 13.156096302379261 1.7704977272727271 Q 13.12711902965199 1.8011795454545454 13.12711902965199 1.859815909090909 L 13.12711902965199 2.066406818181818 L 13.065073575106535 2.066406818181818 L 13.065073575106535 1.6927704545454545 L 13.12711902965199 1.6927704545454545 L 13.12711902965199 1.7459522727272727 Q 13.14552812056108 1.717315909090909 13.177232666015625 1.7016340909090908 Q 13.208937211470172 1.6859522727272727 13.247119029651989 1.6859522727272727 Q 13.315300847833807 1.6859522727272727 13.357573575106535 1.7272022727272727 Z M 14.028429066051137 1.6927704545454545 L 14.028429066051137 2.066406818181818 L 13.966383611505682 2.066406818181818 L 13.966383611505682 2.0111795454545454 Q 13.94865633877841 2.039815909090909 13.916951793323863 2.055838636363636 Q 13.885247247869318 2.0718613636363634 13.8470654296875 2.0718613636363634 Q 13.803429066051136 2.0718613636363634 13.76865633877841 2.0537931818181816 Q 13.733883611505682 2.035725 13.713769975142045 1.9995886363636362 Q 13.693656338778409 1.9634522727272725 13.693656338778409 1.9116340909090908 L 13.693656338778409 1.6927704545454545 L 13.755019975142046 1.6927704545454545 L 13.755019975142046 1.9034522727272727 Q 13.755019975142046 1.9586795454545454 13.782974520596591 1.9883386363636362 Q 13.810929066051136 2.017997727272727 13.859338156960227 2.017997727272727 Q 13.909110884232954 2.017997727272727 13.937747247869318 1.987315909090909 Q 13.966383611505682 1.9566340909090907 13.966383611505682 1.897997727272727 L 13.966383611505682 1.6927704545454545 L 14.028429066051137 1.6927704545454545 Z M 14.195442893288352 2.057884090909091 Q 14.161351984197443 2.043225 14.141579256924716 2.016975 Q 14.121806529651987 1.9907249999999999 14.119761075106533 1.9566340909090907 L 14.183851984197442 1.9566340909090907 Q 14.186579256924716 1.9845886363636362 14.210101984197443 2.002315909090909 Q 14.23362471147017 2.0200431818181817 14.271806529651988 2.0200431818181817 Q 14.307261075106533 2.0200431818181817 14.32771562056108 2.0043613636363635 Q 14.348170166015624 1.9886795454545454 14.348170166015624 1.964815909090909 Q 14.348170166015624 1.9402704545454543 14.326351984197442 1.9283386363636361 Q 14.304533802379261 1.9164068181818181 14.258851984197443 1.904815909090909 Q 14.217261075106533 1.8939068181818182 14.191011075106534 1.882656818181818 Q 14.164761075106533 1.871406818181818 14.146011075106534 1.8492477272727272 Q 14.127261075106533 1.8270886363636363 14.127261075106533 1.7909522727272726 Q 14.127261075106533 1.7623159090909088 14.144306529651988 1.7384522727272727 Q 14.161351984197443 1.7145886363636362 14.19271562056108 1.7006113636363636 Q 14.224079256924716 1.6866340909090907 14.264306529651988 1.6866340909090907 Q 14.326351984197442 1.6866340909090907 14.364533802379261 1.7179977272727271 Q 14.402715620561079 1.7493613636363636 14.405442893288352 1.803906818181818 L 14.343397438742898 1.803906818181818 Q 14.341351984197443 1.7745886363636363 14.31987471147017 1.7568613636363635 Q 14.298397438742898 1.7391340909090909 14.262261075106533 1.7391340909090909 Q 14.228851984197442 1.7391340909090909 14.209079256924715 1.7534522727272726 Q 14.189306529651988 1.7677704545454545 14.189306529651988 1.7909522727272726 Q 14.189306529651988 1.8093613636363635 14.201238347833806 1.8212931818181817 Q 14.213170166015624 1.8332249999999999 14.231238347833806 1.8403840909090907 Q 14.249306529651989 1.8475431818181818 14.281351984197443 1.856406818181818 Q 14.321579256924716 1.867315909090909 14.346806529651989 1.8778840909090908 Q 14.372033802379262 1.8884522727272726 14.390101984197443 1.9095886363636363 Q 14.408170166015625 1.9307249999999998 14.408851984197442 1.964815909090909 Q 14.408851984197442 1.9954977272727272 14.391806529651989 2.0200431818181817 Q 14.374761075106534 2.044588636363636 14.343738347833806 2.058565909090909 Q 14.312715620561079 2.072543181818182 14.272488347833807 2.072543181818182 Q 14.229533802379262 2.072543181818182 14.195442893288352 2.057884090909091 Z M 14.84178788618608 1.9027704545454545 L 14.543151522549715 1.9027704545454545 Q 14.546560613458807 1.9579977272727271 14.580992431640626 1.9890204545454544 Q 14.615424249822443 2.0200431818181817 14.664515158913353 2.0200431818181817 Q 14.704742431640625 2.0200431818181817 14.731674249822444 2.001293181818182 Q 14.758606068004262 1.9825431818181816 14.769515158913352 1.9511795454545453 L 14.836333340731535 1.9511795454545453 Q 14.821333340731535 2.0050431818181815 14.776333340731535 2.0387931818181815 Q 14.731333340731535 2.072543181818182 14.664515158913353 2.072543181818182 Q 14.611333340731534 2.072543181818182 14.569401522549716 2.0486795454545454 Q 14.527469704367897 2.024815909090909 14.503606068004261 1.9808386363636363 Q 14.479742431640625 1.9368613636363634 14.479742431640625 1.878906818181818 Q 14.479742431640625 1.8209522727272727 14.502924249822444 1.777315909090909 Q 14.526106068004262 1.7336795454545453 14.56803788618608 1.710156818181818 Q 14.609969704367899 1.6866340909090907 14.664515158913353 1.6866340909090907 Q 14.717696977095171 1.6866340909090907 14.758606068004262 1.709815909090909 Q 14.799515158913353 1.732997727272727 14.821674249822443 1.773565909090909 Q 14.843833340731534 1.8141340909090908 14.843833340731534 1.8652704545454544 Q 14.843833340731534 1.8829977272727272 14.84178788618608 1.9027704545454545 Z M 14.764060613458808 1.7912931818181816 Q 14.74837879527699 1.7657249999999998 14.721446977095171 1.7524295454545453 Q 14.694515158913353 1.7391340909090909 14.66178788618608 1.7391340909090909 Q 14.614742431640625 1.7391340909090909 14.581674249822443 1.7691340909090907 Q 14.548606068004261 1.7991340909090907 14.543833340731535 1.852315909090909 L 14.779742431640626 1.852315909090909 Q 14.779742431640626 1.8168613636363635 14.764060613458808 1.7912931818181816 Z" fill="#67a97b" fill-rule="nonzero"></path></g><g clip-path="url(&quot;#SvgjsClipPath1009&quot;)"><g clip-path="url(&quot;#SvgjsClipPath1008&quot;)"><path d=" M 15.824272162098207 1.01399739473962 C 15.519791279680689 1.0140626429755375 15.272977059880198 1.2608768627760298 15.272911811644283 1.5653577451935465 C 15.272911803784568 1.8698847814193142 15.5197451297297 2.11677102052126 15.8242721605299 2.1168362865046824 C 15.970522499055198 2.1168362898652067 16.110781075998094 2.0587304815217946 16.214184597510414 1.9553047941956494 C 16.317588119022727 1.8518791068695046 16.37566386310668 1.7116080787903496 16.375632512552134 1.5653577451935465 L 15.824272162098207 1.5653577451935465 Z" fill="#1c3423" transform="matrix(1,0,0,1,0,0)" fill-rule="nonzero"></path></g><g clip-path="url(&quot;#SvgjsClipPath1008&quot;)"><path d=" M 16.927229244721154 1.01399739473962 C 17.231821570302984 1.0139321016500902 17.478813644498388 1.2607654405793043 17.47894416774772 1.5653577451935465 C 17.478813657272568 1.8699691665407587 17.231840694027397 2.116836314463429 16.927229244721392 2.116836286505019 C 16.622702213920768 2.116771021387618 16.375868887273533 1.8698847829876217 16.375868894267228 1.5653577451935465 L 16.927229244721154 1.5653577451935465 Z" fill="#67a97b" transform="matrix(1,0,0,1,0,0)" fill-rule="nonzero"></path></g><g clip-path="url(&quot;#SvgjsClipPath1008&quot;)"><path d=" M 16.927229244721154 1.0522912325846514 C 17.231775441686676 1.0523565507401191 17.478748409033052 0.8055952140427111 17.47894416774772 0.501049072988271 C 17.478912824941446 0.3547565228453618 17.420768274855206 0.2144681859397254 17.317301655526958 0.11104589678250804 C 17.213835036198713 0.007623607625291462 17.07352179486295 -0.05046081784602683 16.927229244721314 -0.050429468323202734 C 16.622702213920768 -0.050364203205801227 16.375868887273533 0.19652203519419503 16.375868894267228 0.5010490729882702 L 16.927229244721154 0.5010490729882702 Z" fill="#a4c868" transform="matrix(1,0,0,1,0,0)" fill-rule="nonzero"></path></g><g clip-path="url(&quot;#SvgjsClipPath1008&quot;)"><path d=" M 15.824272162098207 1.0522912325846514 C 15.519810399311043 1.0522912395798396 15.272977076759561 0.8055108287802445 15.272911811644283 0.501049072988271 C 15.272911805226853 0.1965220341506213 15.519745132341274 -0.050364203782286905 15.824272163141782 -0.050429468323426076 C 15.970532114923193 -0.05046084111085179 16.11080892126682 0.00763489516727274 16.21421924387484 0.11106738504702121 C 16.31762956648286 0.2144998749267697 16.375695234594485 0.35478913024739406 16.375632512552137 0.5010490729882702 L 15.824272162098207 0.5010490729882702 Z" fill="#faecd3" transform="matrix(1,0,0,1,0,0)" fill-rule="nonzero"></path></g></g></g><defs><clipPath id="SvgjsClipPath1009"><path d=" M 15.273148193359374 -0.050429468323201165 h 2.205795974388345 v 2.1672657548282204 h -2.205795974388345 Z"></path></clipPath><clipPath id="SvgjsClipPath1008"><path d=" M 15.273148193359374 -0.050429468323201165 L 17.47894416774772 -0.050429468323201165 L 17.47894416774772 2.116836286505019 L 15.273148193359374 2.116836286505019 Z"></path></clipPath></defs></svg>